<?xml version="1.0" ?><svg xmlns="http://www.w3.org/2000/svg" xmlns:xlink="http://www.w3.org/1999/xlink" version="1.1" viewBox="0 0 512 512" style="enable-background:new 0 0 512 512;" xml:space="preserve"><g id="_x32_9_Wifi"><g><linearGradient id="SVGID_1_" gradientUnits="userSpaceOnUse" x1="285.5213" y1="-214.3924" x2="226.0146" y2="892.4321"><stop offset="0" style="stop-color:#EAE9FE"/><stop offset="0.4236" style="stop-color:#EEEEFE"/><stop offset="0.8967" style="stop-color:#FBFBFF"/><stop offset="1" style="stop-color:#FFFFFF"/></linearGradient><path style="fill:url(#SVGID_1_);" d="M472.914,264.742c-9.683-7.535-21.378-14.027-25.882-25.439    c-6.125-15.52,3.665-32.176,9.438-47.831c17.629-47.798-4.996-104.402-45.589-135.186    C333.443-2.442,182.282,18.143,161.159,99.314c-8.936,34.337,7.074,73.513-9.306,104.987    c-20.667,39.713-75.492,42.391-110.802,60.05c-43.746,21.878-52.499,69.515-21.125,105.783    c11.521,13.318,26.262,22.493,36.829,37.044c15.288,21.055,23.863,44.338,44.319,61.705c28.805,24.456,76.963,30.52,102.464,2.636    c14.359-15.702,19.032-38.836,34.706-53.226c20.632-18.942,53.243-16.394,79.499-6.639c26.255,9.755,50.606,25.505,78.261,29.944    c43.239,6.94,89.601-18.431,107.066-58.591C520.534,342.847,507.476,291.636,472.914,264.742z"/><path style="fill:#EDEDED;" d="M354.566,460.079c0,22.184-17.971,40.155-40.155,40.155H58.85    c-22.184,0-40.155-17.972-40.155-40.155H354.566z"/><path style="fill:#386E93;" d="M329.527,275.659v179.504H43.734V275.659c0-6.892,5.587-12.48,12.48-12.48h260.833    C323.939,263.179,329.527,268.767,329.527,275.659z"/><path style="fill:#EDEDED;" d="M75.668,422.319V296.024c0-2.54,2.059-4.599,4.599-4.599h212.726c2.54,0,4.599,2.059,4.599,4.599    v126.295c0,2.54-2.059,4.599-4.599,4.599H80.268C77.728,426.918,75.668,424.859,75.668,422.319z"/><path style="fill:#F9BB40;" d="M502.471,32.371v200.793c0,11.38-9.225,20.604-20.604,20.604H349.519    c-11.38,0-20.604-9.225-20.604-20.604V32.371c0-11.38,9.225-20.604,20.604-20.604h132.347    C493.246,11.767,502.471,20.992,502.471,32.371z"/><path style="fill:#EDEDED;" d="M328.914,205.03v28.134c0,11.379,9.225,20.604,20.604,20.604h132.348    c11.379,0,20.604-9.225,20.604-20.604V205.03H328.914z"/><path style="fill:#332E8E;" d="M292.993,286.515H80.268c-5.243,0-9.511,4.265-9.511,9.508v126.295    c0,5.243,4.268,9.511,9.511,9.511h212.725c5.243,0,9.511-4.268,9.511-9.511V296.023    C302.505,290.78,298.237,286.515,292.993,286.515z M292.683,422.008H80.578V296.336h212.105V422.008z"/><path style="fill:#332E8E;" d="M481.865,6.855H349.518c-14.067,0-25.513,11.447-25.513,25.516v79.718h-99.567    c-23.572,0-42.752,19.178-42.752,42.752v103.428H56.213c-9.588,0-17.389,7.801-17.389,17.392v179.504c0,0.001,0,0.002,0,0.003    H18.696c-2.711,0-4.911,2.2-4.911,4.911c0,24.851,20.215,45.066,45.066,45.066h255.56c24.851,0,45.066-20.215,45.066-45.066    c0-2.711-2.2-4.911-4.911-4.911h-20.129c0-0.001,0-0.002,0-0.003v-71.244h43.48c23.572,0,42.752-19.179,42.752-42.752v-82.488    h61.196c14.07,0,25.516-11.446,25.516-25.516V205.03V32.371C507.381,18.302,495.935,6.855,481.865,6.855z M314.411,495.323H58.851    c-17.766,0-32.508-13.217-34.903-30.334h325.365C346.919,482.107,332.177,495.323,314.411,495.323z M349.518,16.677h132.347    c8.655,0,15.695,7.04,15.695,15.695V200.12H333.827V32.371C333.827,23.717,340.867,16.677,349.518,16.677z M48.646,275.661    c0-4.175,3.395-7.571,7.568-7.571h260.835c4.172,0,7.568,3.395,7.568,7.571v174.593H48.646V275.661z M410.848,341.169    c0,18.156-14.774,32.93-32.93,32.93h-43.48v-98.439c0-9.591-7.801-17.392-17.389-17.392h-125.54V154.841    c0-18.158,14.774-32.93,32.93-32.93h99.567v83.088c0,0.011-0.003,0.021-0.003,0.032v28.134c0,14.07,11.446,25.516,25.516,25.516    h61.33V341.169z M497.56,233.165c0,8.655-7.04,15.695-15.695,15.695H349.518c-8.651,0-15.691-7.04-15.691-15.695v-23.224H497.56    V233.165z"/><path style="fill:#332E8E;" d="M388.874,38.842h53.638c2.711,0,4.911-2.198,4.911-4.911s-2.2-4.911-4.911-4.911h-53.638    c-2.711,0-4.911,2.198-4.911,4.911S386.163,38.842,388.874,38.842z"/><path style="fill:#332E8E;" d="M415.692,115.037c-14.844,0-28.761,5.764-39.193,16.233c-1.915,1.92-1.909,5.029,0.013,6.944    c1.925,1.917,5.032,1.91,6.944-0.013c8.575-8.603,20.023-13.343,32.236-13.343c12.235,0,23.697,4.74,32.271,13.343    c0.959,0.964,2.219,1.445,3.478,1.445c1.253,0,2.507-0.478,3.466-1.432c1.921-1.915,1.928-5.024,0.013-6.944    C444.488,120.801,430.558,115.037,415.692,115.037z"/><path style="fill:#332E8E;" d="M390.137,144.922c-1.918,1.915-1.925,5.024-0.01,6.944c1.921,1.92,5.026,1.926,6.947,0.01    c10.263-10.237,26.971-10.237,37.233,0c0.959,0.956,2.216,1.434,3.469,1.434c1.26,0,2.519-0.481,3.478-1.443    c1.915-1.92,1.909-5.029-0.01-6.944C427.153,130.867,404.23,130.867,390.137,144.922z"/><path style="fill:#332E8E;" d="M369.721,124.545c12.261-12.258,28.585-19.008,45.971-19.008c17.389,0,33.713,6.751,45.971,19.008    c0.959,0.959,2.216,1.439,3.472,1.439c1.256,0,2.513-0.48,3.472-1.439c1.918-1.917,1.918-5.026,0-6.944    c-14.112-14.114-32.904-21.886-52.915-21.886c-20.007,0-38.8,7.772-52.915,21.886c-1.918,1.917-1.918,5.026,0,6.944    C364.695,126.463,367.802,126.463,369.721,124.545z"/><path style="fill:#332E8E;" d="M415.695,157.176c-0.006,0-0.01,0-0.016,0c-3.884,0.005-7.536,1.517-10.275,4.26    c-1.918,1.918-1.918,5.027,0,6.946c1.918,1.915,5.026,1.917,6.944-0.002c0.892-0.89,2.078-1.381,3.341-1.383    c0.003,0,0.003,0,0.006,0c1.263,0,2.452,0.492,3.344,1.384c0.959,0.958,2.216,1.437,3.472,1.437c1.256,0,2.513-0.48,3.472-1.439    c1.918-1.918,1.918-5.027,0-6.946C423.233,158.688,419.582,157.176,415.695,157.176z"/><path style="fill:#332E8E;" d="M186.633,341.441c-14.841,0-28.761,5.764-39.196,16.235c-1.915,1.921-1.909,5.029,0.013,6.944    c0.956,0.956,2.212,1.432,3.466,1.432c1.26,0,2.519-0.483,3.478-1.445c8.578-8.607,20.027-13.345,32.24-13.345    c12.235,0,23.694,4.738,32.268,13.345c1.915,1.918,5.023,1.931,6.944,0.013c1.921-1.915,1.928-5.023,0.013-6.944    C215.429,347.205,201.496,341.441,186.633,341.441z"/><path style="fill:#332E8E;" d="M161.075,371.324c-1.918,1.918-1.925,5.026-0.01,6.947c1.921,1.918,5.026,1.928,6.947,0.01    c10.263-10.24,26.974-10.247,37.237,0c0.959,0.956,2.216,1.432,3.469,1.432c1.26,0,2.519-0.48,3.478-1.442    c1.915-1.921,1.909-5.029-0.01-6.947C198.094,357.273,175.168,357.279,161.075,371.324z"/><path style="fill:#332E8E;" d="M140.661,350.949c12.254-12.258,28.579-19.007,45.971-19.007c17.389,0,33.713,6.749,45.971,19.007    c0.959,0.959,2.216,1.439,3.472,1.439c1.256,0,2.513-0.48,3.472-1.439c1.918-1.918,1.918-5.026,0-6.944    c-14.112-14.112-32.904-21.884-52.915-21.884c-20.014,0-38.806,7.772-52.915,21.884c-1.918,1.918-1.918,5.026,0,6.944    C135.636,352.867,138.743,352.867,140.661,350.949z"/><path style="fill:#332E8E;" d="M176.341,387.84c-1.918,1.918-1.918,5.026,0,6.944s5.026,1.918,6.944,0    c1.851-1.845,4.847-1.838,6.692,0c0.959,0.959,2.216,1.439,3.472,1.439c1.256,0,2.513-0.48,3.472-1.439    c1.918-1.918,1.918-5.026,0-6.944C191.252,382.172,182.016,382.165,176.341,387.84z"/></g></g><g id="Layer_1"/></svg>